<svg xmlns="http://www.w3.org/2000/svg" xmlns:xlink="http://www.w3.org/1999/xlink" width="506" zoomAndPan="magnify" viewBox="0 0 379.5 275.25" height="367" preserveAspectRatio="xMidYMid meet" version="1.0"><defs><g/><clipPath id="cdd66de57d"><path d="M 83.769531 0.480469 L 295.230469 0.480469 L 295.230469 211.941406 L 83.769531 211.941406 Z M 83.769531 0.480469 " clip-rule="nonzero"/></clipPath><clipPath id="0c378c0dbd"><path d="M 189.5 0.480469 C 131.109375 0.480469 83.769531 47.816406 83.769531 106.210938 C 83.769531 164.601562 131.109375 211.941406 189.5 211.941406 C 247.894531 211.941406 295.230469 164.601562 295.230469 106.210938 C 295.230469 47.816406 247.894531 0.480469 189.5 0.480469 Z M 189.5 0.480469 " clip-rule="nonzero"/></clipPath><clipPath id="f5cb7b61a3"><path d="M 161 152 L 218 152 L 218 181.007812 L 161 181.007812 Z M 161 152 " clip-rule="nonzero"/></clipPath><clipPath id="066f225fc6"><path d="M 131 31.414062 L 248 31.414062 L 248 143 L 131 143 Z M 131 31.414062 " clip-rule="nonzero"/></clipPath><clipPath id="7fb38d8ebd"><path d="M 49.523438 60.890625 L 329.261719 60.890625 L 329.261719 184.304688 L 49.523438 184.304688 Z M 49.523438 60.890625 " clip-rule="nonzero"/></clipPath></defs><g clip-path="url(#cdd66de57d)"><g clip-path="url(#0c378c0dbd)"><path fill="#81a969" d="M 83.769531 0.480469 L 295.230469 0.480469 L 295.230469 211.941406 L 83.769531 211.941406 Z M 83.769531 0.480469 " fill-opacity="1" fill-rule="nonzero"/></g></g><g clip-path="url(#f5cb7b61a3)"><path fill="#000000" d="M 217.070312 178.949219 L 216.863281 178.765625 C 215.59375 177.65625 213.140625 176.730469 211.433594 176.730469 L 192.414062 176.730469 L 192.414062 152.003906 L 186.613281 152.003906 L 186.613281 176.753906 L 167.59375 176.753906 C 165.882812 176.753906 163.457031 177.679688 162.160156 178.789062 L 161.953125 178.972656 C 160.683594 180.082031 161.027344 181.007812 162.714844 181.007812 L 216.285156 181.007812 C 217.996094 180.984375 218.34375 180.082031 217.070312 178.949219 Z M 217.070312 178.949219 " fill-opacity="1" fill-rule="nonzero"/></g><g clip-path="url(#066f225fc6)"><path fill="#404041" d="M 246.351562 97.140625 C 245.660156 96.144531 244.316406 94.96875 241.890625 94.96875 C 237.847656 94.96875 233.015625 98.339844 232.460938 98.734375 L 232.253906 98.875 L 232.09375 99.058594 C 232.023438 99.128906 231.746094 99.359375 231.652344 99.382812 C 231.628906 99.382812 229.921875 98.574219 228.949219 90.300781 C 227.214844 75.695312 240.644531 51.449219 240.757812 51.195312 L 240.828125 51.058594 C 241.265625 50.085938 245.011719 41.511719 241.613281 35.945312 C 239.996094 33.308594 237.175781 31.875 233.203125 31.691406 C 226.871094 31.414062 221.578125 33.539062 215.9375 35.804688 C 209.121094 38.53125 201.425781 41.628906 189.523438 41.628906 C 177.621094 41.628906 169.902344 38.53125 163.109375 35.804688 C 157.46875 33.539062 152.175781 31.4375 145.800781 31.714844 C 141.824219 31.898438 139.003906 33.332031 137.386719 35.96875 C 133.988281 41.535156 137.734375 50.109375 138.171875 51.082031 L 138.242188 51.21875 C 138.382812 51.472656 151.808594 75.714844 150.050781 90.324219 C 149.082031 98.574219 147.371094 99.382812 147.371094 99.382812 C 147.253906 99.382812 147 99.195312 146.886719 99.058594 L 146.722656 98.875 L 146.515625 98.734375 C 145.984375 98.339844 141.132812 94.96875 137.109375 94.96875 C 134.683594 94.96875 133.34375 96.144531 132.648438 97.140625 C 130.570312 100.097656 131.101562 105.667969 134.359375 114.703125 L 134.476562 114.980469 C 148.296875 140.285156 178.5 142.25 187.445312 142.25 C 188.578125 142.25 189.269531 142.226562 189.5 142.203125 C 189.777344 142.226562 190.539062 142.25 191.71875 142.25 C 196.109375 142.25 204.867188 141.789062 214.414062 138.761719 C 228.234375 134.347656 238.355469 126.375 244.480469 115.050781 L 244.59375 114.773438 C 247.898438 105.714844 248.433594 100.097656 246.351562 97.140625 Z M 246.351562 97.140625 " fill-opacity="1" fill-rule="nonzero"/></g><path fill="#000000" d="M 214.273438 138.414062 C 204.660156 141.464844 195.761719 141.882812 191.742188 141.882812 C 190.496094 141.882812 189.730469 141.835938 189.523438 141.835938 C 189.316406 141.835938 188.554688 141.882812 187.304688 141.882812 C 183.285156 141.882812 174.363281 141.488281 164.773438 138.414062 C 156.546875 135.804688 146.609375 130.8125 139.167969 121.335938 C 156.292969 158.867188 189.523438 157.527344 189.546875 157.527344 C 189.570312 157.527344 222.78125 158.867188 239.902344 121.335938 C 232.4375 130.789062 222.503906 135.78125 214.273438 138.414062 Z M 214.273438 138.414062 " fill-opacity="1" fill-rule="nonzero"/><path fill="#000000" d="M 217.832031 123.878906 C 217.832031 122.46875 205.144531 121.335938 189.5 121.335938 C 173.855469 121.335938 161.167969 122.46875 161.167969 123.878906 C 161.167969 125.289062 173.855469 126.421875 189.5 126.421875 C 205.167969 126.421875 217.832031 125.289062 217.832031 123.878906 Z M 217.832031 123.878906 " fill-opacity="1" fill-rule="nonzero"/><g clip-path="url(#7fb38d8ebd)"><path fill="#4b9960" d="M 140.554688 -9.835938 C 125.558594 -3.492188 112.089844 5.589844 100.523438 17.15625 C 88.957031 28.722656 79.878906 42.191406 73.535156 57.1875 C 67.914062 70.476562 64.667969 84.472656 63.847656 98.890625 C 63.664062 99.617188 63.453125 100.257812 63.207031 100.820312 C 62.828125 101.699219 62.363281 102.398438 61.773438 102.988281 C 59.789062 104.972656 56.539062 105.5625 49.527344 106.207031 L 49.527344 106.214844 C 54.300781 106.652344 57.332031 107.066406 59.40625 107.914062 C 59.441406 107.925781 59.472656 107.9375 59.503906 107.953125 C 59.539062 107.96875 59.574219 107.984375 59.605469 107.996094 C 59.628906 108.007812 59.652344 108.019531 59.675781 108.027344 C 59.722656 108.046875 59.765625 108.066406 59.8125 108.089844 C 59.855469 108.109375 59.902344 108.132812 59.945312 108.152344 C 60.667969 108.503906 61.265625 108.921875 61.773438 109.433594 C 62.742188 110.402344 63.378906 111.671875 63.851562 113.527344 C 64.667969 127.945312 67.917969 141.945312 73.535156 155.234375 C 79.878906 170.230469 88.960938 183.699219 100.527344 195.265625 C 112.09375 206.832031 125.5625 215.914062 140.558594 222.257812 C 156.082031 228.824219 172.578125 232.152344 189.578125 232.152344 C 206.578125 232.152344 223.074219 228.824219 238.601562 222.253906 C 253.597656 215.914062 267.066406 206.828125 278.632812 195.261719 C 290.199219 183.695312 299.277344 170.230469 305.621094 155.230469 C 311.328125 141.738281 314.589844 127.511719 315.34375 112.855469 C 315.796875 111.355469 316.386719 110.277344 317.234375 109.429688 C 317.746094 108.917969 318.339844 108.5 319.0625 108.148438 C 319.109375 108.125 319.152344 108.105469 319.199219 108.085938 C 319.242188 108.0625 319.289062 108.042969 319.335938 108.023438 C 319.355469 108.011719 319.378906 108 319.402344 107.992188 C 319.4375 107.976562 319.46875 107.964844 319.503906 107.949219 C 319.535156 107.9375 319.566406 107.925781 319.597656 107.910156 C 321.675781 107.0625 324.707031 106.648438 329.484375 106.210938 L 329.484375 106.203125 C 324.441406 105.738281 321.347656 105.304688 319.265625 104.359375 C 318.453125 103.988281 317.796875 103.542969 317.238281 102.984375 C 316.390625 102.136719 315.800781 101.058594 315.347656 99.554688 C 314.589844 84.902344 311.328125 70.675781 305.621094 57.179688 C 299.28125 42.183594 290.199219 28.714844 278.632812 17.148438 C 267.066406 5.582031 253.597656 -3.496094 238.601562 -9.839844 C 223.074219 -16.410156 206.582031 -19.738281 189.578125 -19.738281 C 172.578125 -19.738281 156.085938 -16.410156 140.558594 -9.839844 Z M 313.675781 94.054688 C 313.320312 97.121094 312.914062 99.253906 312.234375 100.820312 C 311.851562 101.699219 311.386719 102.398438 310.796875 102.988281 C 308.8125 104.972656 305.5625 105.5625 298.550781 106.207031 L 298.550781 106.214844 C 303.324219 106.652344 306.355469 107.066406 308.433594 107.914062 C 308.464844 107.925781 308.496094 107.9375 308.527344 107.953125 C 308.5625 107.96875 308.597656 107.984375 308.632812 107.996094 C 308.652344 108.007812 308.675781 108.019531 308.699219 108.027344 C 308.746094 108.046875 308.789062 108.066406 308.835938 108.089844 C 308.878906 108.109375 308.925781 108.132812 308.96875 108.152344 C 309.691406 108.503906 310.289062 108.921875 310.800781 109.433594 C 312.441406 111.074219 313.125 113.582031 313.679688 118.367188 C 307.546875 181.433594 254.230469 230.898438 189.578125 230.898438 C 124.925781 230.898438 71.222656 181.078125 65.414062 117.679688 C 65.953125 113.339844 66.652344 110.992188 68.210938 109.433594 C 68.726562 108.921875 69.320312 108.503906 70.042969 108.152344 C 70.085938 108.132812 70.128906 108.109375 70.175781 108.089844 C 70.21875 108.066406 70.265625 108.046875 70.3125 108.027344 C 70.335938 108.015625 70.359375 108.003906 70.378906 107.996094 C 70.414062 107.984375 70.449219 107.96875 70.484375 107.953125 C 70.515625 107.941406 70.546875 107.929688 70.578125 107.914062 C 72.652344 107.066406 75.683594 106.652344 80.460938 106.214844 L 80.460938 106.207031 C 75.421875 105.742188 72.324219 105.308594 70.246094 104.363281 C 69.429688 103.992188 68.773438 103.546875 68.214844 102.988281 C 66.65625 101.429688 65.957031 99.082031 65.414062 94.738281 C 71.226562 31.339844 124.695312 -18.480469 189.578125 -18.480469 C 254.464844 -18.480469 307.550781 30.984375 313.679688 94.054688 Z M 313.675781 94.054688 " fill-opacity="1" fill-rule="nonzero"/></g><g fill="#314528" fill-opacity="1"><g transform="translate(49.649356, 231.077755)"><g><path d="M 16.40625 -2.78125 L 42.015625 -2.78125 L 30.78125 -33.5625 L 35.984375 -36.53125 C 40.242188 -38.882812 42.375 -42.628906 42.375 -47.765625 C 42.375 -57.335938 35.082031 -62.125 20.5 -62.125 L 11.96875 -62.125 L 11.96875 0 L 9.1875 0 L 9.1875 -64.90625 L 20.5 -64.90625 C 28.65625 -64.90625 34.800781 -63.40625 38.9375 -60.40625 C 43.082031 -57.414062 45.15625 -53.203125 45.15625 -47.765625 C 45.15625 -41.578125 42.5625 -37.03125 37.375 -34.125 L 34.21875 -32.359375 L 46 0 L 16.40625 0 Z M 16.40625 -2.78125 "/></g></g></g><g fill="#314528" fill-opacity="1"><g transform="translate(93.792436, 231.077755)"><g><path d="M 42.46875 -33.9375 L 14.9375 -33.9375 L 43.3125 -62.125 L 11.96875 -62.125 L 11.96875 -2.78125 L 47.9375 -2.78125 L 47.9375 0 L 9.1875 0 L 9.1875 -64.90625 L 50.078125 -64.90625 L 21.703125 -36.71875 L 42.46875 -36.71875 Z M 42.46875 -33.9375 "/></g></g></g><g fill="#314528" fill-opacity="1"><g transform="translate(140.346707, 231.077755)"><g><path d="M 7.234375 -48.875 C 7.234375 -54.863281 8.75 -59.1875 11.78125 -61.84375 C 14.8125 -64.507812 19.722656 -65.84375 26.515625 -65.84375 C 31.273438 -65.84375 35.109375 -64.601562 38.015625 -62.125 C 40.921875 -59.65625 43.023438 -55.882812 44.328125 -50.8125 L 35.703125 -44.328125 L 31.15625 -44.328125 L 41.171875 -51.84375 C 39.878906 -55.976562 38.007812 -58.878906 35.5625 -60.546875 C 33.125 -62.222656 30.109375 -63.0625 26.515625 -63.0625 C 24.046875 -63.0625 21.960938 -62.90625 20.265625 -62.59375 C 18.566406 -62.28125 16.863281 -61.675781 15.15625 -60.78125 C 13.457031 -59.882812 12.175781 -58.445312 11.3125 -56.46875 C 10.445312 -54.488281 10.015625 -51.957031 10.015625 -48.875 C 10.015625 -46.15625 11.265625 -43.742188 13.765625 -41.640625 C 16.273438 -39.535156 19.320312 -37.738281 22.90625 -36.25 C 26.488281 -34.769531 30.085938 -33.253906 33.703125 -31.703125 C 37.328125 -30.160156 40.390625 -28.179688 42.890625 -25.765625 C 45.390625 -23.359375 46.640625 -20.582031 46.640625 -17.4375 C 46.640625 -11.25 45.109375 -6.640625 42.046875 -3.609375 C 38.992188 -0.585938 33.757812 0.921875 26.34375 0.921875 C 20.28125 0.921875 15.515625 -0.296875 12.046875 -2.734375 C 8.585938 -5.179688 6.210938 -8.96875 4.921875 -14.09375 L 7.515625 -15.203125 C 8.742188 -10.203125 10.859375 -6.726562 13.859375 -4.78125 C 16.859375 -2.832031 21.019531 -1.859375 26.34375 -1.859375 C 32.269531 -1.859375 36.671875 -3 39.546875 -5.28125 C 42.421875 -7.570312 43.859375 -11.625 43.859375 -17.4375 C 43.859375 -20.15625 42.609375 -22.5625 40.109375 -24.65625 C 37.609375 -26.757812 34.546875 -28.550781 30.921875 -30.03125 C 27.304688 -31.519531 23.707031 -33.035156 20.125 -34.578125 C 16.539062 -36.128906 13.492188 -38.109375 10.984375 -40.515625 C 8.484375 -42.929688 7.234375 -45.71875 7.234375 -48.875 Z M 7.234375 -48.875 "/></g></g></g><g fill="#314528" fill-opacity="1"><g transform="translate(185.509915, 231.077755)"><g><path d="M 47.765625 -64.90625 L 47.765625 -62.125 L 25.96875 -62.125 L 25.96875 0 L 23.1875 0 L 23.1875 -62.125 L 1.390625 -62.125 L 1.390625 -64.90625 Z M 47.765625 -64.90625 "/></g></g></g><g fill="#314528" fill-opacity="1"><g transform="translate(227.79823, 231.077755)"><g><path d="M 42.46875 -33.9375 L 14.9375 -33.9375 L 43.3125 -62.125 L 11.96875 -62.125 L 11.96875 -2.78125 L 47.9375 -2.78125 L 47.9375 0 L 9.1875 0 L 9.1875 -64.90625 L 50.078125 -64.90625 L 21.703125 -36.71875 L 42.46875 -36.71875 Z M 42.46875 -33.9375 "/></g></g></g><g fill="#314528" fill-opacity="1"><g transform="translate(274.352498, 231.077755)"><g><path d="M 18.078125 0 L 9.1875 0 L 9.1875 -64.90625 L 18.078125 -64.90625 C 26.984375 -64.90625 34.523438 -61.628906 40.703125 -55.078125 C 46.890625 -48.523438 49.984375 -40.984375 49.984375 -32.453125 C 49.984375 -23.921875 46.890625 -16.378906 40.703125 -9.828125 C 34.523438 -3.273438 26.984375 0 18.078125 0 Z M 18.078125 -2.78125 C 26.179688 -2.78125 33.0625 -5.765625 38.71875 -11.734375 C 44.375 -17.703125 47.203125 -24.609375 47.203125 -32.453125 C 47.203125 -40.304688 44.375 -47.210938 38.71875 -53.171875 C 33.0625 -59.140625 26.179688 -62.125 18.078125 -62.125 L 11.96875 -62.125 L 11.96875 -2.78125 Z M 18.078125 -2.78125 "/></g></g></g></svg>